v 1.0 1.0 1.0
v 1.0 1.0 -1.0
v 1.0 -1.0 1.0
v 1.0 -1.0 -1.0
v -1.0 1.0 1.0
v -1.0 1.0 -1.0
v -1.0 -1.0 1.0
v -1.0 -1.0 -1.0
vt 0.0 0.5
vt 0.0 0.75
vt 0.333333 0.0
vt 0.333333 0.25
vt 0.333333 0.5
vt 0.333333 0.75
vt 0.333333 1.0
vt 0.666667 0.0
vt 0.666667 0.25
vt 0.666667 0.5
vt 0.666667 0.75
vt 0.666667 1.0
vt 1.0 0.5
vt 1.0 0.75
vn 0.57735 0.57735 0.57735
vn 0.57735 0.57735 -0.57735
vn 0.57735 -0.57735 0.57735
vn 0.57735 -0.57735 -0.57735
vn -0.57735 0.57735 0.57735
vn -0.57735 0.57735 -0.57735
vn -0.57735 -0.57735 0.57735
vn -0.57735 -0.57735 -0.57735
f 8/3/8 6/8/6 2/9/2
f 2/9/2 4/4/4 8/3/8 
f 3/5/3 1/10/1 5/11/5
f 5/11/5 7/6/7 3/5/3
f 8/2/8 4/1/4 3/5/3
f 3/5/3 7/6/7 8/2/8
f 2/13/2 6/14/6 5/11/5
f 5/11/5 1/10/1 2/13/2
f 7/6/7 5/11/5 6/12/6
f 6/12/6 8/7/8 7/6/7
f 4/4/4 2/9/2 1/10/1
f 1/10/1 3/5/3 4/4/4